<?xml version="1.0" encoding="UTF-8" standalone="no"?>
<!-- Created with Inkscape (http://www.inkscape.org/) -->

<svg
   xmlns:dc="http://purl.org/dc/elements/1.1/"
   xmlns:cc="http://creativecommons.org/ns#"
   xmlns:rdf="http://www.w3.org/1999/02/22-rdf-syntax-ns#"
   xmlns:svg="http://www.w3.org/2000/svg"
   xmlns="http://www.w3.org/2000/svg"
   xmlns:sodipodi="http://sodipodi.sourceforge.net/DTD/sodipodi-0.dtd"
   xmlns:inkscape="http://www.inkscape.org/namespaces/inkscape"
   width="350mm"
   height="200mm"
   viewBox="0 0 1240.1574 708.66143"
   id="svg3349"
   version="1.1"
   inkscape:version="0.91 r13725"
   sodipodi:docname="beIn.svg">
  <defs
     id="defs3351" />
  <sodipodi:namedview
     id="base"
     pagecolor="#ffffff"
     bordercolor="#666666"
     borderopacity="1.0"
     inkscape:pageopacity="0.0"
     inkscape:pageshadow="2"
     inkscape:zoom="0.35"
     inkscape:cx="375"
     inkscape:cy="520"
     inkscape:document-units="px"
     inkscape:current-layer="layer1"
     showgrid="false"
     inkscape:window-width="1920"
     inkscape:window-height="1017"
     inkscape:window-x="-8"
     inkscape:window-y="-8"
     inkscape:window-maximized="1" />
  <metadata
     id="metadata3354">
    <rdf:RDF>
      <cc:Work
         rdf:about="">
        <dc:format>image/svg+xml</dc:format>
        <dc:type
           rdf:resource="http://purl.org/dc/dcmitype/StillImage" />
        <dc:title></dc:title>
      </cc:Work>
    </rdf:RDF>
  </metadata>
  <g
     inkscape:label="Calque 1"
     inkscape:groupmode="layer"
     id="layer1"
     transform="translate(0,-343.70078)">
    <path
       style="fill:#5f318c;fill-opacity:1"
       d="m 489.66645,976.32677 c -15.39297,-1.7875 -28.53395,-9.1296 -36.16113,-20.2039 -5.44632,-7.90781 -6.96387,-12.88081 -6.96387,-22.82024 0,-8.31155 2.13846,-11.76449 7.28592,-11.76449 4.78686,0 7.71408,4.28787 7.71408,11.2998 0,15.89042 13.39142,27.34723 33.2392,28.43733 13.06956,0.7179 22.48371,-1.8881 29.403,-8.1393 7.65655,-6.91721 10.22501,-12.90478 9.6189,-22.42343 -0.44355,-6.96583 -1.00939,-8.42861 -4.75543,-12.29354 -5.68095,-5.86126 -15.02062,-9.14386 -30.40438,-10.68618 -24.33748,-2.43999 -37.10029,-7.04007 -44.93831,-16.19703 -12.03218,-14.05691 -8.68805,-40.40167 6.9085,-54.4243 19.07975,-17.15434 55.47971,-16.09525 73.70923,2.14465 6.63971,6.64349 10.39099,14.3814 12.30761,25.38742 1.34249,7.70914 1.26074,8.66692 -0.99923,11.70779 -5.43904,7.31839 -14.08909,2.70028 -14.08909,-7.52193 0,-9.7394 -6.66095,-19.69167 -16.875,-25.21332 -4.22044,-2.28154 -7.04634,-2.70296 -18.125,-2.70296 -14.701,0 -19.60199,1.73061 -27.12415,9.57796 -7.47018,7.79313 -10.16083,20.50254 -6.03115,28.48844 3.62452,7.00906 15.78373,11.76913 33.7803,13.22423 26.41589,2.13584 41.74414,9.49523 48.65281,23.35913 4.20973,8.44784 4.5016,22.46194 0.6805,32.67476 -7.34695,19.63641 -30.61049,31.13411 -56.83331,28.08911 z m 76.32087,-1.3168 c -1.68262,-2.4022 -1.94587,-9.5584 -1.94587,-52.89539 0,-30.78067 0.52486,-52.95653 1.36035,-57.47612 2.98411,-16.14252 14.02839,-30.07601 28.38761,-35.81386 5.95252,-2.37859 9.5067,-2.85316 21.56687,-2.87969 14.20547,-0.0312 14.59441,0.0446 23.96452,4.67558 38.76063,19.15655 38.76451,73.91679 0.006,93.0853 l -9.51773,4.70735 -25.07143,0.625 -25.07144,0.625 -0.34309,21.81033 c -0.28435,18.0773 -0.69192,22.1959 -2.38122,24.0625 -2.86276,3.1634 -8.5624,2.8897 -10.95482,-0.526 z m 63.53755,-63.52622 c 8.5393,-3.19496 16.31723,-10.61591 20.343,-19.40937 8.63427,-18.85972 -1.00232,-41.94135 -20.60861,-49.36197 -13.25212,-5.01567 -32.57742,-1.35696 -41.09425,7.78007 -1.5133,1.62349 -4.03481,5.7573 -5.60337,9.18623 -2.58949,5.66075 -2.89325,8.4486 -3.30109,30.29693 l -0.44916,24.0625 21.94313,0 c 19.03825,0 22.84695,-0.33815 28.77036,-2.55439 z m 100.76658,64.33432 c -27.02745,-7.0982 -48.7099,-28.97521 -55.60621,-56.10506 -1.04159,-4.09756 -1.89379,-12.27626 -1.89379,-18.17487 0,-21.17388 7.32758,-38.80448 22.38655,-53.86345 15.05897,-15.05897 32.68957,-22.38655 53.86345,-22.38655 21.17388,0 38.80448,7.32758 53.86345,22.38655 15.05897,15.05897 22.38655,32.68957 22.38655,53.86345 0,21.17388 -7.32758,38.80448 -22.38655,53.86343 -10.34041,10.3404 -21.93034,16.9955 -35.68858,20.4928 -9.27958,2.3588 -27.79841,2.3206 -36.92487,-0.076 z m 33.58572,-14.8457 c 27.28152,-7.2613 46.3846,-31.73872 46.3846,-59.43423 0,-16.24214 -6.34582,-31.35114 -18.1075,-43.11283 -24.19427,-24.19426 -61.99696,-24.1996 -86.22653,-0.0125 -19.33287,19.29925 -23.53825,46.65338 -11.02283,71.69854 7.00199,14.01201 24.38971,27.64272 39.90958,31.28632 7.49143,1.7587 21.63398,1.5516 29.06268,-0.4256 z m 73.36015,14.0376 c -1.68088,-2.3998 -1.94458,-9.4215 -1.93643,-51.56247 0.005,-28.09369 0.56686,-52.2201 1.32372,-56.88511 1.74649,-10.76479 7.45363,-22.38729 13.81533,-28.1347 8.81366,-7.9626 19.53901,-12.15619 32.87415,-12.8537 18.32996,-0.95878 31.12755,3.82597 42.36451,15.83919 15.44962,16.5169 18.5836,38.9281 8.35046,59.71458 -4.35206,8.84029 -14.24037,18.60868 -23.0099,22.73084 -3.15024,1.48079 -5.72771,2.96323 -5.72771,3.29429 0,0.33108 5.625,9.81575 12.5,21.07707 6.875,11.26131 12.5,21.26861 12.5,22.23851 0,3.4874 -3.83871,7.3197 -7.33196,7.3197 -4.97633,0 -6.38949,-1.5596 -15.85747,-17.5 -4.69598,-7.9063 -10.96788,-18.1869 -13.93753,-22.84587 l -5.39939,-8.47085 -18.42433,0.34585 -18.42432,0.34584 -0.32891,22.50003 c -0.283,19.3601 -0.62162,22.718 -2.42642,24.0625 -3.35456,2.4989 -8.74193,1.8994 -10.9238,-1.2157 z m 66.45688,-64.41728 c 13.80371,-7.37533 20.9028,-18.72879 20.9028,-33.42955 0,-14.70369 -7.11228,-26.07529 -20.9028,-33.42086 -4.34233,-2.31295 -7.27169,-2.8128 -16.52775,-2.82018 -9.77736,-0.007 -12.17451,0.44505 -18.31269,3.45941 -7.74771,3.80478 -12.62061,9.25687 -15.59554,17.4492 -2.04202,5.6233 -4.07828,46.2579 -2.52137,50.31514 0.71665,1.86755 3.2668,2.04396 24.24025,1.67693 21.49176,-0.37612 23.87789,-0.6445 28.7171,-3.23009 z m 78.54312,64.41728 c -1.69843,-2.4248 -1.94587,-10.7584 -1.94587,-65.53697 l 0,-62.75887 -19.33382,-0.4005 c -15.98868,-0.3312 -19.69239,-0.75966 -21.40625,-2.47638 -2.99468,-2.99968 -2.61208,-8.58606 0.77593,-11.3295 2.67242,-2.16398 5.69967,-2.28447 49.008,-1.95053 44.02979,0.3395 46.24149,0.46788 47.93299,2.78233 2.2608,3.09367 2.2614,7.05208 10e-4,10.14718 -1.6037,2.1963 -3.6782,2.4642 -21.8751,2.82492 l -20.103,0.39851 0,63.57471 c 0,56.1285 -0.23006,63.8048 -1.96429,65.539 -2.91558,2.9156 -8.77902,2.4853 -11.08983,-0.8139 z m 110.74938,1.3832 c -15.8265,-1.9543 -32.126,-12.6823 -38.6367,-25.42981 -2.3445,-4.5904 -3.3727,-8.88152 -3.7886,-15.8115 -0.5329,-8.88036 -0.3765,-9.64733 2.3578,-11.5625 6.8837,-4.82153 12.3723,-1.01083 12.3723,8.59006 0,16.72834 15.5177,29.35875 36.0701,29.35875 22.1252,0 36.9667,-11.79631 36.9581,-29.37503 0,-7.38566 -2.7485,-12.65356 -8.728,-16.75076 -6.4775,-4.43844 -12.6759,-6.11857 -30.1214,-8.16473 -19.2861,-2.26205 -26.9636,-4.41067 -34.9592,-9.78366 -10.8055,-7.26131 -15.0071,-16.74993 -13.8147,-31.19865 2.1159,-25.64003 21.6824,-41.52143 50.8451,-41.26915 27.4132,0.23714 46.9305,16.68769 49.4718,41.69787 0.7529,7.40985 0.562,8.56037 -1.8151,10.9375 -5.8487,5.84859 -11.9384,2.08954 -13.137,-8.10916 -1.0137,-8.62407 -3.3317,-13.78755 -8.6402,-19.24572 -6.5822,-6.76797 -14.9532,-9.96215 -26.1451,-9.97633 -21.816,-0.0276 -35.1488,11.23475 -35.2963,29.81537 -0.062,7.78492 0.046,8.04985 5.1339,12.56731 6.5453,5.81201 10.9561,7.18039 30.6989,9.52389 8.7428,1.03777 19.4781,2.9933 23.8564,4.34561 24.7171,7.63431 34.4237,29.8059 23.6849,54.09993 -5.8894,13.32341 -20.6818,23.62621 -36.4245,25.36961 -3.1695,0.351 -7.1689,0.7985 -8.8877,0.9943 -1.7187,0.1958 -6.6934,-0.085 -11.0548,-0.6232 z M 695.91645,807.52995 c -6.16052,-2.15342 -11.45658,-6.83813 -14.24704,-12.60249 -2.61755,-5.40712 -2.62796,-5.9299 -2.62796,-131.94912 0,-111.36891 0.23169,-127.075 1.93466,-131.15078 9.2361,-22.10514 40.57583,-19.7112 46.84709,3.57848 0.83957,3.11798 1.15953,47.65189 0.93484,130.12371 -0.38044,139.64449 0.33023,128.81824 -8.99356,137.00464 -6.75341,5.92957 -15.77168,7.81866 -23.84803,4.99556 z m 70.8523,-1.73765 c -4.83581,-2.40978 -7.3943,-4.74408 -9.93293,-9.0625 l -3.41937,-5.81666 -0.37672,-93.75 c -0.26069,-64.87338 0.0579,-96.79354 1.03419,-103.63106 2.89243,-20.25655 11.37759,-37.32267 25.5295,-51.34722 16.24412,-16.09794 34.7455,-24.13838 58.18803,-25.28765 25.16561,-1.23375 47.37413,7.1454 65.2397,24.61457 8.76974,8.57514 14.96347,17.80518 70.47718,105.02636 33.47437,52.59375 62.89777,97.78297 65.38537,100.4205 2.4875,2.63752 7.3353,6.28587 10.7728,8.10746 5.3336,2.82634 7.8079,3.31454 16.875,3.3295 8.6009,0.0143 11.7425,-0.53291 16.491,-2.87186 7.3307,-3.61083 15.0304,-10.9933 18.7698,-17.99653 l 2.8642,-5.36407 0.625,-98.84954 0.625,-98.84952 3.75,-6.05342 c 11.1102,-17.93456 38.5634,-14.61445 44.4142,5.37132 0.9388,3.20708 1.2373,35.18908 0.9708,104.00616 l -0.385,99.375 -3.4055,10 c -11.2272,32.9677 -37.9382,55.3787 -72.3965,60.74189 -27.8936,4.34145 -61.768,-8.3024 -79.18363,-29.55592 -2.58092,-3.14968 -32.23401,-48.86128 -65.89572,-101.58133 -33.66173,-52.72005 -62.69753,-97.43286 -64.52401,-99.3618 -1.82649,-1.92892 -6.8296,-5.23449 -11.11804,-7.34567 -7.24291,-3.56568 -8.53213,-3.7982 -18.1369,-3.27117 -12.72405,0.69819 -18.25404,3.30753 -26.77991,12.63619 -10.93012,11.95928 -10.43484,6.56393 -10.43484,113.67383 0,70.42528 -0.38158,95.04752 -1.5325,98.88895 -2.86618,9.56647 -13.53391,17.05003 -24.3046,17.05003 -2.01962,0 -6.60314,-1.46062 -10.1856,-3.24584 z m -575.8523,-0.63979 c -36.31891,-5.23366 -71.91702,-26.51099 -94.503709,-56.48579 -9.53939,-12.65973 -20.05766,-34.22836 -24.50693,-50.25358 l -3.47051,-12.5 -0.36144,-128.00237 -0.36145,-128.00239 2.75741,-2.93512 c 3.41318,-3.63316 9.62754,-3.88003 13.74565,-0.54604 l 2.95098,2.38909 0.625,78.52095 0.625,78.52096 6.20898,-8.72254 C 133.70281,522.23867 207.6983,501.92023 270.28284,528.90192 c 22.11924,9.53612 46.5673,29.35671 60.29957,48.88622 15.70367,22.33315 25.11623,49.9755 26.38973,77.5 3.80789,82.30086 -63.24666,152.03961 -145.28193,151.09758 -7.30057,-0.0838 -16.64876,-0.63878 -20.77376,-1.23321 z m 53.71266,-23.52157 c 13.25561,-3.68738 26.00526,-9.70353 37.74532,-17.81081 64.96663,-44.86373 72.49175,-137.0981 15.6074,-191.29752 -11.35292,-10.81708 -20.34634,-16.96242 -34.59626,-23.64015 -18.13507,-8.49839 -26.95745,-10.30238 -50.59412,-10.34543 -17.65879,-0.0321 -22.15305,0.37468 -31.25,2.82881 -66.58744,17.96372 -106.164499,84.73467 -89.398999,150.82624 9.809039,38.66838 39.948999,72.29591 76.751899,85.63307 17.88367,6.48095 23.76269,7.37448 45.7721,6.95675 15.98048,-0.30331 22.00226,-0.93657 29.96266,-3.15096 z m 250.03734,23.52157 c -27.79958,-4.006 -56.3315,-17.83706 -77.41673,-37.52835 -19.36589,-18.08561 -34.87906,-44.01607 -41.48995,-69.35096 -4.28669,-16.42787 -5.44645,-44.41217 -2.5334,-61.12947 6.05539,-34.75044 24.52601,-66.29321 51.54955,-88.03254 56.44935,-45.41118 136.93518,-42.55274 190.18649,6.75445 25.24843,23.37838 41.932,57.67669 45.20391,92.93084 1.29052,13.90511 0.35921,19.35945 -3.67417,21.51805 -1.42421,0.76221 -32.97649,1.22361 -83.67534,1.22361 l -81.389,0 -3.21683,-3.21684 c -2.6801,-2.6801 -3.09409,-3.98361 -2.48119,-7.8125 1.51268,-9.45015 -2.75653,-8.97066 79.87276,-8.97066 l 73.78414,0 -0.86204,-8.4375 c -1.06569,-10.4307 -6.91569,-28.26909 -12.81034,-39.0625 -16.96571,-31.0651 -45.2636,-53.47363 -79.17286,-62.69545 -9.03845,-2.45806 -13.61145,-2.88863 -30.625,-2.88352 -16.94258,0.005 -21.62426,0.44545 -30.625,2.88055 -44.03514,11.9135 -78.08519,46.11917 -89.63929,90.04892 -4.3847,16.67104 -4.65133,41.82509 -0.61517,58.03323 11.39859,45.77348 45.47566,80.59898 90.87946,92.87542 7.02124,1.89843 13.0719,2.36526 30.625,2.36286 19.06351,-0.002 23.14339,-0.36997 31.74379,-2.85841 27.91239,-8.07612 52.44586,-25.29126 68.89634,-48.34454 3.22485,-4.51922 6.89435,-8.76852 8.15443,-9.44291 6.55462,-3.50792 14.95544,1.44944 14.95544,8.82525 0,8.56511 -23.80831,36.00944 -41.87724,48.27276 -29.80822,20.23075 -68.29561,29.14897 -103.74776,24.04022 z"
       id="path3347"
       inkscape:connector-curvature="0" />
  </g>
</svg>
