<svg data-name="Capa 2" viewBox="0 0 84.36 18" xmlns="http://www.w3.org/2000/svg"><defs><style>.cls-1{fill:#ff4b44}</style></defs><g data-name="Capa 1"><path class="cls-1" d="M0 12.94V2h3.04v11.19h5.37v2.8H1.76l-1.2-1.46c-.41-.52-.57-1-.57-1.6m10.05.78 3.28-11.72h3.49c.65 0 1.05.3 1.24.94l3.02 10.77c.14.48.16.8.16 1.42v.86h-2.69l-1.07-4.26-4.36 2.2-.53 2.06H9.89v-.86c0-.62.02-.94.16-1.42m7.28-2.52-1.6-6.4h-.33l-1.6 6.4h3.53Zm5.29 1.74V2h3.04v11.19h5.37v2.8h-6.65l-1.2-1.46c-.41-.52-.57-1-.57-1.6M35.78 2h-3.04v13.99h3.04V2Zm2.07 9.55V6.44c0-2.98 1.64-4.6 4.66-4.6h1.33c2.98 0 4.66 1.5 4.66 4.16h-3.04v-.56c0-.52-.28-.8-.81-.8H41.7c-.53 0-.81.28-.81.8v7.11c0 .52.28.8.81.8h2.95c.53 0 .81-.28.81-.8v-1.76h-2.11v-2.8h3.38l1.2 1.46c.4.5.57.96.57 1.6v.5c0 2.98-1.64 4.6-4.66 4.6h-1.33c-3.02 0-4.66-1.62-4.66-4.6Zm11.73 2.16 3.28-11.72h3.49c.65 0 1.05.3 1.24.94l3.02 10.77c.14.48.16.8.16 1.42v.86h-2.69L57 11.72l-4.36 2.2-.53 2.06h-2.69v-.86c0-.62.02-.94.16-1.42m7.28-2.52-1.6-6.4h-.33l-1.6 6.4h3.53Zm19.77-.43h-.57v.69h.57s.09-.02.12-.05c.03-.04.05-.09.05-.14v-.3c0-.05-.01-.1-.05-.14a.156.156 0 0 0-.12-.06m-2.15 0h-.42s-.1.02-.13.06c-.03.04-.05.09-.05.14v1.25c0 .06.01.1.04.14.03.04.08.06.13.06h.42c.05 0 .09-.02.12-.06.03-.04.05-.09.05-.14v-1.25c0-.05-.01-.1-.05-.14a.156.156 0 0 0-.12-.06m-2.09 0h-.59v.75h.59c.05 0 .09-.02.13-.06.03-.04.05-.09.05-.14v-.35c0-.05-.02-.1-.05-.14a.156.156 0 0 0-.12-.06Z"/><path class="cls-1" d="M75.25 0c-5.04 0-9.13 4.02-9.14 8.99 0 4.97 4.07 9.01 9.11 9.01 5.04 0 9.13-4.02 9.14-8.99 0-4.97-4.08-9.01-9.11-9.01Zm-3.42 4.16h4.69l-.72 1.13h-4.69l.72-1.13Zm-.96 8.11a.514.514 0 0 1-.52.52h-.62a.514.514 0 0 1-.52-.51v-.24h.38l.06.22c.03.09.09.14.19.14h.42s.1-.02.13-.06c.03-.04.05-.09.05-.14v-.27c0-.13-.06-.2-.17-.2h-.53c-.29 0-.52-.23-.52-.51v-.35c0-.29.24-.52.52-.51h.61a.514.514 0 0 1 .52.51v.22h-.38l-.06-.2a.175.175 0 0 0-.19-.14h-.41s-.1.02-.13.06c-.03.04-.05.09-.05.14v.2c0 .13.06.19.18.19h.53c.14 0 .26.05.37.15.1.1.15.23.15.36v.41Zm2.15-.89c0 .29-.24.52-.53.52h-.68v.89h-.44v-2.43h1.12c.14 0 .27.05.37.15.1.09.15.22.15.36v.51Zm2.09.89a.514.514 0 0 1-.52.52H74c-.14 0-.27-.05-.37-.15-.1-.1-.16-.23-.15-.37v-1.4c0-.14.05-.26.16-.36.1-.1.23-.15.37-.15h.59c.15 0 .27.05.37.15.1.09.16.23.15.36v1.4Zm.11-2.49h-5.94l1.45-2.26h-1.06l.72-1.12h4.42l-.72 1.13h-1.98l-.73 1.12h3.19l2.92-4.53 3.62 5.67h-1.37l-.72-1.13h-2.14l.72-1.13h.7l-.82-1.28-2.26 3.53Zm1.67 3.01-.4-.95h-.41v.95h-.44v-2.43h1.09c.15 0 .27.05.37.15.1.09.15.22.15.36v.43c0 .11-.03.21-.09.3-.06.08-.14.15-.24.19l.43 1.01h-.46Zm2.34-2.03h-.63v2.04h-.44v-2.04h-.62v-.39h1.7v.4Zm1.97 1.52a.514.514 0 0 1-.52.52h-.62a.514.514 0 0 1-.52-.51v-.24h.38l.06.23c.03.09.09.14.19.14h.42s.1-.02.13-.06c.03-.04.05-.09.05-.14v-.27c0-.13-.06-.2-.17-.2h-.53c-.14 0-.27-.05-.37-.15-.1-.1-.16-.23-.15-.37v-.35a.514.514 0 0 1 .52-.51h.61c.15 0 .27.05.37.15.1.09.15.23.15.36v.22h-.38l-.06-.2a.192.192 0 0 0-.19-.14h-.41s-.1.02-.13.06c-.03.04-.05.09-.05.14v.2c0 .13.06.19.18.19h.52c.14 0 .27.05.37.15.1.09.16.23.16.36v.41Zm.27-1.79h-.09v.19h-.05v-.19h-.09v-.04h.23v.04Zm.28.19v-.17c0 .01 0 .02-.01.02l-.07.11-.08-.12v-.02s-.01.02-.01.03v.15h-.04v-.23h.04l.09.14.09-.14h.04v.23h-.04Z"/></g></svg>